<?xml version="1.0" encoding="UTF-8"?>
<!DOCTYPE svg PUBLIC "-//W3C//DTD SVG 1.1//EN" "http://www.w3.org/Graphics/SVG/1.1/DTD/svg11.dtd">
<svg xmlns="http://www.w3.org/2000/svg" version="1.1" width="130px" height="165px" style="shape-rendering:geometricPrecision; text-rendering:geometricPrecision; image-rendering:optimizeQuality; fill-rule:evenodd; clip-rule:evenodd" xmlns:xlink="http://www.w3.org/1999/xlink">
<g><path style="opacity:0.881" fill="#000000" d="M 83.5,-0.5 C 84.1667,-0.5 84.8333,-0.5 85.5,-0.5C 85.4519,2.31282 84.7853,4.97948 83.5,7.5C 83.8457,8.69559 84.3457,8.69559 85,7.5C 85.6667,8.83333 85.6667,10.1667 85,11.5C 82.2988,16.041 79.7988,20.7076 77.5,25.5C 78.365,26.5827 79.365,26.7494 80.5,26C 81.6853,24.647 83.0186,23.4803 84.5,22.5C 85.7414,25.3104 85.408,27.9771 83.5,30.5C 84.5,31.1667 85.5,31.8333 86.5,32.5C 85.5221,33.8013 85.8555,34.968 87.5,36C 86.8132,37.1618 86.6466,38.3284 87,39.5C 89.3603,36.6397 91.527,33.6397 93.5,30.5C 93.8333,30.8333 94.1667,31.1667 94.5,31.5C 92.9198,34.7228 92.0865,38.0562 92,41.5C 92.3333,41.8333 92.6667,42.1667 93,42.5C 93.972,40.6951 95.1387,39.0284 96.5,37.5C 96.6759,39.6716 96.8425,42.0049 97,44.5C 101,47.1667 104.333,50.5 107,54.5C 109.349,53.1597 111.683,51.8264 114,50.5C 117.724,51.9581 119.391,54.6248 119,58.5C 113.894,60.9277 113.227,64.261 117,68.5C 117.703,70.9291 117.537,73.2625 116.5,75.5C 115.833,75.5 115.5,75.8333 115.5,76.5C 114.5,76.5 113.5,76.5 112.5,76.5C 111.379,72.5264 109.546,68.8597 107,65.5C 102.171,67.5728 97.3379,68.7394 92.5,69C 91.2408,72.544 89.9075,76.044 88.5,79.5C 89.4698,85.6825 88.4698,91.6825 85.5,97.5C 88.1667,101.167 90.8333,104.833 93.5,108.5C 90.2579,111.574 87.5913,115.074 85.5,119C 80.7419,118.592 78.4085,120.759 78.5,125.5C 79.8333,125.5 81.1667,125.5 82.5,125.5C 82.6054,129.548 82.2721,133.548 81.5,137.5C 78.5,137.5 75.5,137.5 72.5,137.5C 69.9029,146.29 68.9029,155.29 69.5,164.5C 65.8333,164.5 62.1667,164.5 58.5,164.5C 58.6661,158.824 58.4994,153.157 58,147.5C 56.1425,144.428 54.9758,141.095 54.5,137.5C 45.6628,138.012 42.9962,134.179 46.5,126C 47.8333,125.667 49.1667,125.333 50.5,125C 49.0622,119.479 45.7288,117.645 40.5,119.5C 39.2567,115.071 36.9234,111.238 33.5,108C 36.9816,104.523 39.6482,100.523 41.5,96C 40.6667,95.1667 39.8333,94.3333 39,93.5C 38.5931,90.318 38.0931,87.1514 37.5,84C 37.8333,83.1667 38.1667,82.3333 38.5,81.5C 42.4221,86.3378 45.5888,91.6712 48,97.5C 51.539,99.1377 54.7057,98.6377 57.5,96C 55.981,94.6487 54.6477,93.1487 53.5,91.5C 56.0434,87.5794 58.7101,83.7461 61.5,80C 62.5,79.3333 63.5,79.3333 64.5,80C 66.3702,82.0396 68.3702,83.8729 70.5,85.5C 70.8588,83.629 71.8588,82.129 73.5,81C 72.0196,78.3321 70.5196,78.1655 69,80.5C 66.8408,76.8084 67.0075,73.3084 69.5,70C 67.9532,69.6666 66.6199,70.1666 65.5,71.5C 63.9489,67.8101 62.1155,67.8101 60,71.5C 59.6667,70.1667 59.3333,68.8333 59,67.5C 56.5031,68.8877 55.6698,70.721 56.5,73C 56.0496,74.2853 55.3829,75.452 54.5,76.5C 55.8333,77.1667 57.1667,77.8333 58.5,78.5C 55.8817,83.4131 52.5484,87.7465 48.5,91.5C 47.5,90.1667 46.5,88.8333 45.5,87.5C 46.3256,86.549 46.4922,85.549 46,84.5C 43.4968,85.5504 41.9968,84.5504 41.5,81.5C 42.4279,80.2322 42.5946,78.8989 42,77.5C 38.8305,75.1728 36.6639,72.1728 35.5,68.5C 36.5551,64.7219 38.3884,61.3886 41,58.5C 41.2896,60.0441 41.9563,61.3774 43,62.5C 44.0458,60.9095 45.2125,59.4095 46.5,58C 45.6569,56.2134 45.4902,54.3801 46,52.5C 45.3109,53.3567 44.4776,54.0233 43.5,54.5C 42.2404,52.6471 42.2404,50.8138 43.5,49C 36.522,49.5026 31.522,53.0026 28.5,59.5C 30.69,61.8557 32.69,64.3557 34.5,67C 33.737,67.9435 32.737,68.4435 31.5,68.5C 28.6622,66.8985 25.6622,66.3985 22.5,67C 16.5271,75.9242 14.0271,85.7576 15,96.5C 19.3991,98.9501 23.8991,101.283 28.5,103.5C 28.2907,104.086 27.9574,104.586 27.5,105C 23.534,105.828 19.534,106.328 15.5,106.5C 16.6864,114.227 19.3531,121.394 23.5,128C 23.1667,128.5 22.8333,129 22.5,129.5C 16.4012,123.644 12.0678,116.644 9.5,108.5C 6.00799,107.865 2.67466,106.865 -0.5,105.5C -0.5,103.167 -0.5,100.833 -0.5,98.5C 1.27413,97.119 2.77413,97.4523 4,99.5C 4.66667,97.5 6,96.1667 8,95.5C 8.40636,84.8676 10.9064,74.5343 15.5,64.5C 15.3333,63.8333 15.1667,63.1667 15,62.5C 12.8627,61.5214 11.0294,60.1881 9.5,58.5C 10.7639,55.8747 11.9305,53.2081 13,50.5C 15.8763,49.6106 18.3763,50.4439 20.5,53C 21.5,53.6667 22.5,53.6667 23.5,53C 29.4897,47.5126 36.1564,43.0126 43.5,39.5C 44.0983,38.2054 44.5983,36.8721 45,35.5C 48.69,32.3092 52.5233,29.3092 56.5,26.5C 56.5899,29.6989 55.2566,32.5322 52.5,35C 55.142,35.2555 56.9753,34.0888 58,31.5C 58.4983,28.1832 58.665,24.8499 58.5,21.5C 63.3883,22.3844 65.8883,20.3844 66,15.5C 69,13.1667 72,10.8333 75,8.5C 75,9.83333 75,11.1667 75,12.5C 78.8389,8.82167 81.6722,4.48834 83.5,-0.5 Z M 97.5,55.5 C 95.4503,57.2368 93.617,59.2368 92,61.5C 92.7827,59.6546 93.116,57.6546 93,55.5C 91.5295,56.2666 90.0295,56.9332 88.5,57.5C 89.8347,55.203 91.6681,53.203 94,51.5C 95.3756,52.7051 96.5423,54.0384 97.5,55.5 Z M 97.5,55.5 C 99.0222,56.1909 100.022,57.3576 100.5,59C 99.3496,61.3164 97.6829,63.1498 95.5,64.5C 96.01,61.4606 96.6766,58.4606 97.5,55.5 Z M 88.5,79.5 C 87.5,81.1667 86.1667,82.5 84.5,83.5C 84.8333,81.1667 86.1667,79.8333 88.5,79.5 Z M 70.5,85.5 C 72.2501,86.7417 73.9168,88.2417 75.5,90C 69.8415,95.6931 71.0081,97.5265 79,95.5C 79.6172,96.4491 79.4506,97.2825 78.5,98C 69.2612,99.5061 67.5945,96.8394 73.5,90C 71.8588,88.871 70.8588,87.371 70.5,85.5 Z"/></g>
<g><path style="opacity:0.789" fill="#000000" d="M 116.5,75.5 C 118.776,75.7565 119.943,77.0898 120,79.5C 120.963,85.465 121.463,91.465 121.5,97.5C 124.167,97.5 126.833,97.5 129.5,97.5C 129.5,101.167 129.5,104.833 129.5,108.5C 126.748,108.422 124.082,108.255 121.5,108C 118.639,116.229 114.139,123.396 108,129.5C 107.333,128.167 107.333,126.833 108,125.5C 109.626,123.083 111.126,120.583 112.5,118C 112.043,117.586 111.709,117.086 111.5,116.5C 113.002,113.539 113.336,110.539 112.5,107.5C 108.745,106.775 105.078,105.775 101.5,104.5C 102.09,103.201 103.09,102.368 104.5,102C 107.871,100.932 111.204,99.7653 114.5,98.5C 115.286,94.1805 115.953,89.8472 116.5,85.5C 114.465,82.6678 114.132,79.6678 115.5,76.5C 116.167,76.5 116.5,76.1667 116.5,75.5 Z"/></g>
<g><path style="opacity:0.026" fill="#000000" d="M 103.5,130.5 C 104.376,130.369 105.043,130.702 105.5,131.5C 103.192,132.873 102.525,132.54 103.5,130.5 Z"/></g>
</svg>
